<?xml version="1.0" encoding="utf-8"?>
<!-- Generator: Adobe Illustrator 25.0.1, SVG Export Plug-In . SVG Version: 6.00 Build 0)  -->
<svg version="1.0" id="katman_1" xmlns="http://www.w3.org/2000/svg" xmlns:xlink="http://www.w3.org/1999/xlink" x="0px" y="0px"
	 viewBox="0 0 560 400" style="enable-background:new 0 0 560 400;" xml:space="preserve">
<style type="text/css">
	.st0{fill:#EE2280;}
	.st1{fill:#F9B11E;}
	.st2{fill:#F58616;}
	.st3{fill:url(#SVGID_1_);}
	.st4{fill:url(#SVGID_2_);}
	.st5{fill:url(#SVGID_3_);}
	.st6{fill:url(#SVGID_4_);}
	.st7{fill:url(#SVGID_5_);}
	.st8{fill:url(#SVGID_6_);}
	.st9{fill:#622691;}
</style>
<g transform="matrix(3.88629 0 0 -3.88629 -1349.5 2668.99)">
	<path class="st0" d="M443,635.2l12.9-7.4v14.9L443,635.2z"/>
	<path class="st1" d="M443,664.9V650l12.9,7.4L443,664.9z"/>
	<path class="st2" d="M455.8,657.5L443,650l12.9-7.4V657.5z"/>
	
		<linearGradient id="SVGID_1_" gradientUnits="userSpaceOnUse" x1="415.0423" y1="639.0098" x2="427.8462" y2="639.0098" gradientTransform="matrix(3.8863 0 0 3.8863 -1157.1445 -1840.7603)">
		<stop  offset="0" style="stop-color:#272A62"/>
		<stop  offset="0.19" style="stop-color:#572370"/>
		<stop  offset="0.21" style="stop-color:#572370"/>
		<stop  offset="0.23" style="stop-color:#572370"/>
		<stop  offset="1" style="stop-color:#B0287F"/>
	</linearGradient>
	<path class="st3" d="M455.8,642.6l12.9-7.4V650L455.8,642.6z"/>
	
		<linearGradient id="SVGID_2_" gradientUnits="userSpaceOnUse" x1="282.2447" y1="497.5086" x2="283.3952" y2="497.5086" gradientTransform="matrix(0 -51.3204 51.3204 0 -25070.0801 15142.5146)">
		<stop  offset="0" style="stop-color:#F14822"/>
		<stop  offset="0.1" style="stop-color:#F14822"/>
		<stop  offset="0.92" style="stop-color:#F58616"/>
		<stop  offset="1" style="stop-color:#F58616"/>
	</linearGradient>
	<path class="st4" d="M455.8,642.6l12.9,7.4l-12.9,7.4V642.6z"/>
	
		<linearGradient id="SVGID_3_" gradientUnits="userSpaceOnUse" x1="415.0423" y1="637.097" x2="427.749" y2="637.097" gradientTransform="matrix(3.8863 0 0 3.8863 -1157.1445 -1840.7603)">
		<stop  offset="0" style="stop-color:#B01938"/>
		<stop  offset="0.6" style="stop-color:#E41257"/>
		<stop  offset="1" style="stop-color:#E41257"/>
	</linearGradient>
	<path class="st5" d="M455.8,627.8l12.9,7.4l-12.9,7.4V627.8z"/>
	<path class="st0" d="M443,635.2l12.9-7.4v14.9L443,635.2z"/>
	<path class="st1" d="M443,664.9V650l12.9,7.4L443,664.9z"/>
	<path class="st2" d="M455.8,657.5L443,650l12.9-7.4V657.5z"/>
	
		<linearGradient id="SVGID_4_" gradientUnits="userSpaceOnUse" x1="415.0423" y1="639.0098" x2="427.8462" y2="639.0098" gradientTransform="matrix(3.8863 0 0 3.8863 -1157.1445 -1840.7603)">
		<stop  offset="0" style="stop-color:#272A62"/>
		<stop  offset="0.19" style="stop-color:#572370"/>
		<stop  offset="0.21" style="stop-color:#572370"/>
		<stop  offset="0.23" style="stop-color:#572370"/>
		<stop  offset="1" style="stop-color:#B0287F"/>
	</linearGradient>
	<path class="st6" d="M455.8,642.6l12.9-7.4V650L455.8,642.6z"/>
	
		<linearGradient id="SVGID_5_" gradientUnits="userSpaceOnUse" x1="282.2447" y1="497.5086" x2="283.3952" y2="497.5086" gradientTransform="matrix(0 -51.3204 51.3204 0 -25070.0801 15142.5146)">
		<stop  offset="0" style="stop-color:#F14822"/>
		<stop  offset="0.1" style="stop-color:#F14822"/>
		<stop  offset="0.92" style="stop-color:#F58616"/>
		<stop  offset="1" style="stop-color:#F58616"/>
	</linearGradient>
	<path class="st7" d="M455.8,642.6l12.9,7.4l-12.9,7.4V642.6z"/>
	
		<linearGradient id="SVGID_6_" gradientUnits="userSpaceOnUse" x1="415.0423" y1="637.097" x2="427.749" y2="637.097" gradientTransform="matrix(3.8863 0 0 3.8863 -1157.1445 -1840.7603)">
		<stop  offset="0" style="stop-color:#B01938"/>
		<stop  offset="0.6" style="stop-color:#E41257"/>
		<stop  offset="1" style="stop-color:#E41257"/>
	</linearGradient>
	<path class="st8" d="M455.8,627.8l12.9,7.4l-12.9,7.4V627.8z"/>
	<g>
		<path class="st9" d="M386.7,627.4c-0.5-0.5-0.7-1.3-0.7-1.9v-10.8l-11.3,14.8h-4.8v-23.8h5.1l-0.1,15.3l11.7-15.3h4.4v23.8
			C390.5,629.3,388,628.7,386.7,627.4"/>
		<path class="st9" d="M403.7,609.5c1.6,0,3.3,0.4,4.9,1.2v-2.5c0-0.5-0.1-1-0.6-1.3c-1.5-0.9-3.6-1.3-5.9-1.3
			c-4.9,0-9.2,3.3-9.2,9.4c0,5,3.9,9.2,9.5,9.2c3.1,0,5.3-1.1,7.1-2.9l-2.9-3.1c-1.3,1.2-2.6,1.7-4.2,1.7c-2.5,0-4.4-2.1-4.4-4.8
			C397.9,611.2,400.5,609.5,403.7,609.5"/>
		<path class="st9" d="M414.6,616.3c0.2,2.4,1.9,4.1,3.9,4.1c2.3,0,3.7-1.6,3.9-4.1H414.6z M427.1,614.6c0,5.3-2.8,9.5-8.7,9.5
			c-5.4,0-8.7-4-8.7-9.3c0.1-5.9,4.2-9.2,9-9.2c2.3,0,4.4,0.4,5.9,1.3c0.5,0.3,0.6,0.8,0.6,1.3v2.4c-1.6-0.8-3.3-1.2-4.9-1.2
			c-2.7,0-5.1,1.2-5.6,3.9h12.4C427.1,614,427.1,614.2,427.1,614.6"/>
		<path class="st9" d="M429.1,626.4c0,0.6,0.2,1.2,0.6,1.7c1.2,1.2,3.3,1.7,3.8,1.8v-24.2h-4.5V626.4z"/>
		<path class="st9" d="M436.2,626.4c0,0.6,0.2,1.2,0.7,1.7c1.2,1.2,3.4,1.7,3.8,1.8v-24.2h-4.5V626.4z"/>
	</g>
</g>
</svg>
