<?xml version="1.0" standalone="no"?>
<!DOCTYPE svg PUBLIC "-//W3C//DTD SVG 20010904//EN"
 "http://www.w3.org/TR/2001/REC-SVG-20010904/DTD/svg10.dtd">
<svg version="1.0" xmlns="http://www.w3.org/2000/svg"
 width="200.000000pt" height="200.000000pt" viewBox="0 0 200.000000 200.000000"
 preserveAspectRatio="xMidYMid meet">

<g transform="translate(0.000000,200.000000) scale(0.100000,-0.100000)"
fill="#000000" stroke="none">
<path d="M0 1005 l0 -725 1000 0 1000 0 0 725 0 725 -1000 0 -1000 0 0 -725z
m200 283 l0 -63 41 63 c26 39 48 62 60 62 16 0 14 -8 -17 -56 -20 -30 -33 -62
-30 -70 3 -8 24 -41 46 -74 37 -54 39 -60 20 -60 -14 0 -32 18 -57 57 -33 52
-37 55 -49 38 -8 -10 -14 -36 -14 -57 0 -31 -4 -38 -20 -38 -19 0 -20 7 -20
130 0 123 1 130 20 130 18 0 20 -7 20 -62z m388 -65 c28 -69 50 -128 47 -131
-14 -14 -36 15 -65 87 -19 45 -37 81 -41 81 -4 0 -21 -36 -39 -81 -29 -72 -51
-101 -65 -87 -6 5 97 258 105 258 3 0 29 -57 58 -127z m322 120 c-1 -5 -32
-55 -70 -113 l-69 -105 74 -3 c58 -2 75 -6 75 -17 0 -12 -19 -15 -101 -15 -80
0 -100 3 -96 13 3 7 35 59 71 115 l66 102 -60 0 c-47 0 -60 3 -60 15 0 12 16
15 85 15 47 0 85 -3 85 -7z m120 -123 c0 -109 -2 -130 -15 -130 -13 0 -15 21
-15 130 0 109 2 130 15 130 13 0 15 -21 15 -130z m-721 -316 c34 -24 11 -39
-26 -17 -26 15 -33 15 -47 3 -25 -20 -15 -53 21 -71 73 -36 83 -47 83 -89 0
-31 -5 -43 -25 -56 -34 -22 -103 -13 -128 17 -25 31 -2 44 31 18 29 -23 65
-25 82 -4 18 22 8 47 -30 72 -74 47 -80 54 -80 83 0 16 7 36 16 44 20 21 73
20 103 0z m301 1 c0 -11 -11 -15 -40 -15 l-40 0 0 -115 c0 -96 -3 -115 -15
-115 -12 0 -15 19 -15 115 l0 115 -40 0 c-29 0 -40 4 -40 15 0 12 17 15 95 15
78 0 95 -3 95 -15z m110 -84 c0 -109 9 -131 57 -131 52 0 63 23 63 132 0 80 3
98 15 98 12 0 15 -18 15 -105 0 -99 -2 -107 -25 -130 -18 -19 -35 -25 -65 -25
-30 0 -47 6 -65 25 -23 23 -25 31 -25 130 0 87 3 105 15 105 12 0 15 -18 15
-99z m381 76 c80 -54 70 -187 -18 -223 -18 -8 -55 -14 -83 -14 l-50 0 0 130 0
130 59 0 c44 0 66 -6 92 -23z m169 -107 c0 -109 -2 -130 -15 -130 -13 0 -15
21 -15 130 0 109 2 130 15 130 13 0 15 -21 15 -130z m270 115 c81 -42 80 -181
0 -229 -64 -37 -151 -8 -182 61 -52 118 67 227 182 168z m264 -4 c23 -26 4
-37 -28 -16 -19 13 -29 14 -45 5 -37 -19 -25 -46 34 -79 61 -35 80 -66 65
-105 -17 -46 -75 -59 -130 -31 -17 9 -30 22 -30 30 0 19 12 19 47 -2 43 -24
83 -12 83 27 0 25 -7 33 -42 51 -24 12 -51 28 -60 37 -23 19 -23 60 -1 84 22
25 84 24 107 -1z"/>
<path d="M980 790 l0 -103 47 6 c62 7 93 40 93 101 0 56 -31 86 -94 93 l-46 6
0 -103z"/>
<path d="M1411 864 c-26 -22 -31 -33 -31 -71 0 -36 6 -50 30 -75 28 -27 36
-30 73 -25 55 8 87 43 87 98 0 86 -93 129 -159 73z"/>
</g>
</svg>
