<?xml version="1.0" standalone="no"?>
<!DOCTYPE svg PUBLIC "-//W3C//DTD SVG 20010904//EN"
 "http://www.w3.org/TR/2001/REC-SVG-20010904/DTD/svg10.dtd">
<svg version="1.0" xmlns="http://www.w3.org/2000/svg"
 width="200.000000pt" height="200.000000pt" viewBox="0 0 200.000000 200.000000"
 preserveAspectRatio="xMidYMid meet">

<g transform="translate(0.00000,200.000000) scale(0.10000,-0.100000)"
fill="#000000" stroke="none">
<path d="M965 1231 c-36 -15 -48 -38 -42 -80 4 -31 1 -44 -14 -57 -29 -26 -25
-78 8 -104 22 -17 36 -20 68 -16 52 8 64 8 103 2 37 -6 38 -4 16 29 -14 21
-14 26 -1 47 8 13 18 33 22 46 5 19 3 22 -20 22 -20 0 -28 -7 -37 -31 -10 -29
-11 -29 -29 -13 -24 22 -24 29 1 54 22 22 27 72 7 88 -19 16 -60 22 -82 13z
m40 -61 c0 -13 -6 -25 -12 -27 -16 -6 -27 21 -19 43 9 23 31 11 31 -16z m-11
-119 c24 -25 25 -29 10 -35 -36 -14 -77 24 -59 54 10 16 19 12 49 -19z"/>
<path d="M690 1105 l0 -125 95 0 c88 0 95 2 95 20 0 16 -8 19 -62 22 -60 3
-63 4 -63 28 0 23 4 25 55 30 47 4 55 8 55 25 0 17 -8 20 -57 23 -54 3 -58 4
-56 27 2 23 6 25 60 25 55 0 58 1 58 25 0 25 -1 25 -90 25 l-90 0 0 -125z"/>
<path d="M1100 1205 c0 -22 4 -25 35 -25 l35 0 0 -100 0 -100 30 0 30 0 0 100
0 100 35 0 c31 0 35 3 35 25 l0 25 -100 0 -100 0 0 -25z"/>
<path d="M576 951 c-3 -5 1 -14 10 -21 12 -10 12 -15 2 -21 -17 -11 -5 -21 16
-13 21 8 21 30 -1 39 -17 7 -16 8 2 15 19 8 19 9 -2 9 -12 1 -24 -3 -27 -8z"/>
<path d="M631 925 c0 -37 1 -38 11 -15 l11 25 6 -25 c4 -15 10 -20 14 -13 10
15 -2 43 -18 43 -7 0 -16 6 -18 13 -3 6 -5 -6 -6 -28z"/>
<path d="M1100 931 c0 -36 13 -46 40 -31 31 17 23 54 -12 58 -25 3 -28 0 -28
-27z m43 5 c6 -15 -1 -26 -15 -26 -4 0 -8 9 -8 20 0 23 15 27 23 6z"/>
<path d="M698 928 c7 -7 12 -17 12 -22 0 -6 -5 -4 -10 4 -8 13 -10 12 -10 -2
0 -20 1 -21 24 -12 25 10 20 44 -6 44 -17 0 -19 -3 -10 -12z"/>
<path d="M740 905 l0 -35 25 16 c14 9 25 25 25 35 0 14 -7 19 -25 19 -22 0
-25 -4 -25 -35z"/>
<path d="M802 918 c5 -34 38 -37 38 -4 0 20 -5 26 -21 26 -15 0 -20 -5 -17
-22z"/>
<path d="M1170 920 c0 -11 4 -20 9 -20 5 0 11 9 14 20 3 13 0 20 -9 20 -8 0
-14 -9 -14 -20z"/>
<path d="M1212 918 c2 -12 9 -23 17 -26 8 -3 11 0 7 7 -4 6 -2 11 3 11 6 0 11
7 11 15 0 9 -9 15 -21 15 -15 0 -20 -5 -17 -22z"/>
<path d="M1264 918 c2 -31 36 -33 36 -2 0 17 -6 24 -19 24 -12 0 -18 -7 -17
-22z"/>
<path d="M1310 921 c0 -25 17 -28 23 -3 4 16 5 16 6 0 0 -10 5 -18 10 -18 5 0
12 8 14 18 4 16 5 16 6 0 0 -10 6 -18 12 -18 6 0 9 8 7 18 -2 12 -14 18 -41
20 -32 3 -37 0 -37 -17z"/>
</g>
</svg>
